PathFileType	4	(X/Y/Z)	TRAIL_071_Static_01_markers.trc
DataRate	CameraRate	NumFrames	NumMarkers	Units	OrigDataRate	OrigDataStartFrame	OrigNumFrames
200	200	4	48	mm	200	245	391
Frame#	Time	RSH			LSH			C7			LELB			LWR			RELB			RWR			RASI			LASI			SACR			P1			P2			LTHLP			LTHLD			LTHAP			LTHAD			LLEPI			LPAT			LMEPI			LTIAP			LTIAD			LTILAT			LLMAL			LMMAL			LHEEL			LMFS			LMFL			LP5MT			LP1MT			LTOE			RTHLP			RTHLD			RTHAP			RTHAD			RLEPI			RPAT			RMEPI			RTIAP			RTIAD			RTILAT			RLMAL			RMMAL			RHEEL			RMFS			RMFL			RP5MT			RP1MT			RTOE			
		X1	Y1	Z1	X2	Y2	Z2	X3	Y3	Z3	X4	Y4	Z4	X5	Y5	Z5	X6	Y6	Z6	X7	Y7	Z7	X8	Y8	Z8	X9	Y9	Z9	X10	Y10	Z10	X11	Y11	Z11	X12	Y12	Z12	X13	Y13	Z13	X14	Y14	Z14	X15	Y15	Z15	X16	Y16	Z16	X17	Y17	Z17	X18	Y18	Z18	X19	Y19	Z19	X20	Y20	Z20	X21	Y21	Z21	X22	Y22	Z22	X23	Y23	Z23	X24	Y24	Z24	X25	Y25	Z25	X26	Y26	Z26	X27	Y27	Z27	X28	Y28	Z28	X29	Y29	Z29	X30	Y30	Z30	X31	Y31	Z31	X32	Y32	Z32	X33	Y33	Z33	X34	Y34	Z34	X35	Y35	Z35	X36	Y36	Z36	X37	Y37	Z37	X38	Y38	Z38	X39	Y39	Z39	X40	Y40	Z40	X41	Y41	Z41	X42	Y42	Z42	X43	Y43	Z43	X44	Y44	Z44	X45	Y45	Z45	X46	Y46	Z46	X47	Y47	Z47	X48	Y48	Z48
245	        1.2200000286	      121.3854941525	     1520.3101634979	      -51.1506199837	     -149.1330620847	     1527.9093980789	      -39.9524569511	      -14.9137238986	     1516.9368982315	        7.0473551750	     -427.5511560045	     1399.6279239655	        8.8793039322	     -685.4037103258	     1379.1637420654	      -66.4156079292	      405.4866078295	     1399.7021913528	      -29.9804806709	      655.1914158263	     1425.3574609756	     -152.9158353806	      133.9446398415	     1000.1244544983	     -148.3162045479	     -132.2141197525	     1014.2863988876	     -177.1367788315	       -9.4159786604	     1016.0607099533	       19.1680788994	      -53.3346143566	     1018.1503295898	       16.8287754059	       31.4181129434	     1017.3804759979	       19.7406411171	     -200.2886441551	      726.3779640198	     -105.5569648743	     -190.6295922599	      615.5992746353	     -103.8016676903	     -121.4040351115	      711.0114097595	     -204.5533061028	     -123.2823488317	      609.8827123642	     -179.9345016479	     -184.2919793926	      520.3166604042	     -102.1776795387	     -138.0603370271	      505.8923959732	     -156.5957069397	      -75.5533036790	      487.6026511192	     -103.5569310188	     -154.6139028869	      351.2466251850	     -128.1799077988	     -167.6797923647	      246.8985468149	     -117.5200939178	     -220.4211113058	      308.6322844028	      -64.8976564407	     -211.2279889188	      109.6499338746	      -61.9003772736	     -131.5995213590	      106.4585894346	      -87.7452492714	     -171.8625036083	       60.3064596653	       -1.0892748833	     -173.2256320320	       88.1275460124	     -174.6854782104	     -261.1916420065	       42.7682101727	     -155.3640961647	     -262.3075899683	       38.9079116285	     -219.9022173882	     -157.6331612669	       45.4556234181	     -218.3032035828	     -186.3290277324	       53.4698180854	     -257.4549317360	      187.2331294217	      729.6743988991	      -81.7036628723	      178.0171784558	      633.2942247391	      -79.5966982841	      119.7108718552	      721.2536931038	     -188.4824633598	      116.3213941254	      628.7637948990	     -171.6668605804	      171.3904979624	      515.5574083328	      -81.4510583878	      128.5504939951	      496.4000582695	     -141.9661641121	       55.6072908439	      487.5770211220	      -93.7514305115	      150.4331323304	      360.3587150574	     -111.0325455666	      156.7628922858	      251.3679862022	      -95.6718921661	      205.3258958258	      325.9032368660	      -39.9821400642	      196.0873994030	      105.9632077813	      -24.2347717285	      119.9826466836	      117.9012134671	      -57.1388602257	      152.8557035126	       60.5072528124	       28.9200544357	      159.9924656548	       87.5346511602	     -147.0355391502	      243.2951274313	       39.8729741573	     -127.6470422745	      247.1964153447	       39.1094982624	     -183.8842630386	      143.0533173479	       43.2408712804	     -199.7368931770	      176.6687425770	       56.4773157239	     -243.4619069099
246	        1.2250000238	      121.4664670624	     1520.2851295471	      -51.2285828590	     -149.1096225582	     1527.9151201248	      -40.0289297104	      -14.8892869256	     1516.9304609299	        6.9895386696	     -427.5558051668	     1399.5825052261	        8.8192820549	     -685.3771862588	     1379.1509866714	      -66.4947032928	      405.4457190432	     1399.6775150299	      -30.0657749176	      655.2259865202	     1425.3865480423	     -152.9691815376	      133.9637729325	     1000.1143217087	     -148.3710408211	     -132.1590748630	     1014.2585039139	     -177.1819591522	       -9.3771136380	     1016.0574913025	       19.0881490707	      -53.3138086103	     1018.1677341461	       16.7787075043	       31.3696655430	     1017.4065828323	       19.6683406830	     -200.2625820242	      726.3856530190	     -105.5902838707	     -190.6226036153	      615.5878901482	     -103.9177775383	     -121.3572678171	      711.0065817833	     -204.6335935593	     -123.2544240556	      609.9122762680	     -180.0134778023	     -184.2828151784	      520.3351974487	     -102.2779941559	     -138.0222794614	      505.8874487877	     -156.6987633705	      -75.5363238059	      487.5886142254	     -103.6769151688	     -154.6310243211	      351.1984050274	     -128.1645894051	     -167.7139607273	      246.9080388546	     -117.5596714020	     -220.4164025388	      308.6484372616	      -64.9444460869	     -211.2084385953	      109.6592098475	      -61.8977546692	     -131.5894481741	      106.4313054085	      -87.7363681793	     -171.5768483482	       60.2463334799	       -1.0627508163	     -173.2256171308	       88.1173759699	     -174.6975779533	     -261.1572203241	       42.6984988153	     -155.3772687912	     -262.3096463285	       38.8512983918	     -219.9168801308	     -157.6350090108	       45.4546436667	     -218.3390259743	     -186.3254961572	       53.4319765866	     -257.4662566185	      187.2658672728	      729.6752929688	      -81.7629694939	      178.0170443453	      633.2818865776	      -79.6635150909	      119.7470295228	      721.2668061256	     -188.5875463486	      116.3554358282	      628.7774443626	     -171.7701554298	      171.3728400864	      515.5780911446	      -81.4911127090	      128.5374554791	      496.3898062706	     -142.0152187347	       55.6179712512	      487.6015484333	      -93.7774181366	      150.4468115963	      360.3668212891	     -111.1000776291	      156.8170580067	      251.3798177242	      -95.7041978836	      205.3233179249	      325.8989751339	      -40.0112867355	      196.0783096947	      105.9606149793	      -24.2623686790	      119.9855673112	      117.9082840681	      -57.2003722191	      152.2856595911	       60.5711638927	       28.8795828819	      159.9924805560	       87.5081792474	     -147.1204757690	      243.3326485552	       39.8645363748	     -127.6662945747	      247.2027036347	       39.0524156392	     -183.9219331741	      143.0824938216	       43.1675910950	     -199.7834444046	      176.6769084134	       56.3602931798	     -243.4765100479
247	        1.2300000191	      121.4904281296	     1520.3020572662	      -51.2796640396	     -149.0815189682	     1527.9269218445	      -40.0833487511	      -14.8550841041	     1516.9329643250	        6.9134831429	     -427.4830278955	     1399.5665311813	        8.7509155273	     -685.3484568201	     1379.1493177414	      -66.6060447693	      405.5373611845	     1399.7212648392	      -30.0490856171	      655.2562060751	     1425.3886938095	     -152.9719829559	      133.9950206675	     1000.1219511032	     -148.4180092812	     -132.1497616373	     1014.2524242401	     -177.2148013115	       -9.3656900353	     1016.0670280457	       19.0622806549	      -53.3067007564	     1018.1664228439	       16.7236328125	       31.3994566895	     1017.4140930176	       19.6285247803	     -200.2565172515	      726.3584136963	     -105.7381033897	     -190.6202939354	      615.5834794044	     -104.0220856667	     -121.3402655922	      711.0154628754	     -204.7205567360	     -123.2400444351	      609.9179387093	     -180.1210641861	     -184.2797902427	      520.3121900558	     -102.3760437965	     -138.0101797185	      505.8679580688	     -156.7954421043	      -75.5250436268	      487.5908493996	     -103.7876009941	     -154.6852049432	      351.1957824230	     -128.3292770386	     -167.6976886592	      246.8982040882	     -117.5800561905	     -220.4454598032	      308.6561858654	      -65.0230646133	     -211.2148758970	      109.6560209990	      -61.9146227837	     -131.6092071138	      106.4691767097	      -87.7471566200	     -171.8504783712	       60.3487379849	       -1.0995268822	     -173.2267943225	       88.0944579840	     -174.7359633446	     -261.1753997408	       42.5871312618	     -155.3801894188	     -262.3224017225	       38.8335846364	     -219.9231386185	     -157.6251742445	       45.4495735466	     -218.3590531349	     -186.3202956520	       53.4103214741	     -257.4478387833	      187.3068901696	      729.6945452690	      -81.8439126015	      178.0639233984	      633.2912445068	      -79.7140598297	      119.7478118338	      721.2523221970	     -188.6623501778	      116.3232716717	      628.7705302238	     -171.8219518661	      171.4125963845	      515.5666470528	      -81.5623998642	      128.5559180178	      496.3872432709	     -142.0768499374	       55.6645820834	      487.6101613045	      -93.8767194748	      150.4503729739	      360.3687286377	     -111.0967397690	      156.7996683516	      251.4038681984	      -95.7275032997	      205.3362968363	      325.9091973305	      -40.0412678719	      196.0524412789	      105.9560999274	      -24.2818593979	      119.9076863923	      117.8929433227	      -57.1835041046	      152.2616240181	       60.6091320515	       28.8608074188	      159.9897983469	       87.4422192574	     -147.1278071404	      243.3444204726	       39.8442223668	     -127.6727318764	      247.2110035815	       38.9957353473	     -183.9289665222	      143.0692615904	       43.1094169617	     -199.7504234314	      176.6484918990	       56.2440268695	     -243.5361146927
248	        1.2350000143	      121.5156185426	     1520.3081369400	      -51.3916611671	     -149.0533110700	     1527.9265642166	      -40.1412844658	      -14.8329149015	     1516.9433355331	        6.8309307098	     -427.4436292253	     1399.5355367661	        8.6623430252	     -685.3150782190	     1379.1531324387	      -66.7154192924	      405.5327120223	     1399.7538089752	      -30.1008224487	      655.2879157462	     1425.4053831100	     -153.0514359474	      134.0184303917	     1000.1043081284	     -148.4746932983	     -132.1054306827	     1014.2844915390	     -177.2831082344	       -9.3676122851	     1016.0466432571	       18.9939141273	      -53.3172358773	     1018.1533098221	       16.6839957237	       31.4520689644	     1017.4008607864	       19.5978879929	     -200.2476659618	      726.3302206993	     -105.7608127594	     -190.6258371673	      615.5748367310	     -104.1178107262	     -121.3143897257	      711.0227942467	     -204.8043608665	     -123.2336890898	      609.9234223366	     -180.1899075508	     -184.2562911115	      520.3214287758	     -102.4928689003	     -138.0038318239	      505.8898329735	     -156.8680405617	      -75.5159986220	      487.5822961330	     -103.8763523102	     -154.7023859821	      351.2356877327	     -128.4605860710	     -167.7371320329	      246.8992769718	     -117.6105141640	     -220.4601672493	      308.6692094803	      -65.0710463524	     -211.2010476194	      109.6650734544	      -61.9307756424	     -131.5781232915	      106.4965426922	      -87.7671241760	     -171.8272474609	       60.3103414178	       -1.1172890663	     -173.2268986307	       88.0957767367	     -174.7357845306	     -261.2288055025	       42.5809435546	     -155.4353237152	     -262.3163518510	       38.8169698417	     -219.9072241783	     -157.6320734821	       45.4122237861	     -218.3471918106	     -186.3420215450	       53.3811077476	     -257.4821114540	      187.2765514054	      729.6890616417	      -81.8636417389	      178.0543866553	      633.2844495773	      -79.7935128212	      119.7643968262	      721.2622165680	     -188.7364387512	      116.3616719641	      628.7705898285	     -171.9035506248	      171.4268865981	      515.5703425407	      -81.6132426262	      128.5719665684	      496.3818192482	     -142.1138644218	       55.6744950809	      487.6077175140	      -93.9363837242	      150.4547092118	      360.3497743607	     -111.1301183701	      156.7997279562	      251.3995766640	      -95.7844853401	      205.3535076775	      325.9255588055	      -40.1033759117	      196.0157844223	      105.9581935406	      -24.3589282036	      119.9350300230	      117.8851723671	      -57.2445988655	      152.7911069788	       60.5729669333	       28.8615822792	      159.9576714434	       87.3707085848	     -147.1104621887	      243.3597537674	       39.8109368980	     -127.6779770851	      247.2019883789	       38.9317162335	     -183.9388608932	      143.0657151141	       43.0777557194	     -199.7913718224	      176.5428575673	       56.1158582568	     -243.6533570290
